#!OML:ASF F:\VICON\USERDATA\INSTALL\rory3\rory3.ASF
:FULLY-SPECIFIED
:DEGREES
58
root -0.5094871579496292 17.35622265443231 34.48963315387779 3.3051741049216634 4.792770478250732 -2.5191285626586337
lfemur 11.631886010145083 -5.009825437578728 -22.002716636168515
ltibia 65.4291090304067
lfoot 24.63439162697364 -18.488037322497917
ltoes -19.794945317923954
rfemur -40.32484502695925 0.9858230353100461 28.5252594843127
rtibia 52.08998985666919
rfoot 11.25301066723765 -2.669763516663058
rtoes 12.835532978603478
lowerback 14.104078371910076 -1.4316527983778942 -0.4859171747961675
upperback -1.2478970212513523 -1.8636379086161599 3.4593059981334378
thorax -9.3734875856163 -0.7156001017670269 4.105152005404964
lowerneck -19.959025494826804 -1.6749680887536977 -2.6418466443175967
upperneck 13.639551195233633 -1.962114575195573 2.580570156765956
head 7.541202254396424 -0.8078706067975172 0.9466418903577416
lclavicle -2.846219697010565e-15 9.731511955709497e-16
lhumerus -33.00362728479439 -18.137460036956313 97.8885848925425
lradius 118.4049172880675
lwrist 36.175046424702266
lhand -25.790964646425167 0.8650807746473275
lfingers 7.12502
lthumb 0.7477164432594305 30.832387047440253
rclavicle -2.846219697010565e-15 9.731511955709497e-16
rhumerus -69.69583032031963 -2.369400459271384 -88.79235124831993
rradius 99.89201241118852
rwrist -5.328894196866735
rhand -16.34022768070586 39.881983537257625
rfingers 7.12502
rthumb 9.87183299443618 10.194913846562967
59
root -0.6024911429237961 17.833757630926957 35.07640891985759 2.706796958139389 4.46816735684913 -3.5850097371091243
lfemur 2.3262340132823898 -2.771336704540709 -19.017486426459293
ltibia 81.93464985061888
lfoot 33.08269367687153 -19.9347441642284
ltoes -11.37533054549408
rfemur -33.74473039938401 1.851984882476862 30.708531339528214
rtibia 52.68720657664681
rfoot 8.64625626852466 -3.281849621533821
rtoes 17.985742781409645
lowerback 14.476396930449742 -1.1748014446813118 0.881969937164516
upperback -1.1542617055729818 -1.3157123426439532 3.818342790911807
thorax -9.507768991926923 -0.501875585849412 3.4087541803288373
lowerneck -19.38698663346723 -1.9596795992428622 -2.5986610735948164
upperneck 13.922390452441574 -2.4416653444171748 2.834920521902932
head 7.556636634707743 -1.0204561814170583 0.9899588593408489
lclavicle -2.3183513309545048e-15 1.356031461364104e-15
lhumerus -36.84197454911656 -18.06819086030115 98.8537572257609
lradius 116.84937239120808
lwrist 35.171883634673684
lhand -24.864478453463818 1.4029501626299354
lfingers 7.12502
lthumb 1.6424672036146428 31.37558190004305
rclavicle -2.3183513309545048e-15 1.356031461364104e-15
rhumerus -67.84142564176392 -1.0716552787824956 -90.06714377343528
rradius 100.63880660873293
rwrist -5.96251235522229
rhand -15.723251988854773 40.22796674275715
rfingers 7.12502
rthumb 10.467217999508975 10.557019356024206
60
root -0.6495380071263843 18.245071979880752 36.11468326936246 2.3680951929467478 3.9245140823782165 -4.1720326142626
lfemur -6.331930252504026 0.08361870869014382 -16.941859452905387
ltibia 94.07425114057219
lfoot 30.81166719356365 -18.472765252908495
ltoes -7.672198574056905
rfemur -27.041247639022462 2.6767254680995305 32.348115582048486
rtibia 51.501985129444144
rfoot 5.690537745283762 -3.9929580250099743
rtoes 18.685690887897117
lowerback 14.698240633252782 -0.7313038487308938 1.876830106401763
upperback -0.9317796366649307 -0.5659922715446615 3.843087418103609
thorax -9.502434451299457 -0.19575040177663017 2.7491535911679423
lowerneck -18.920412752094627 -2.3595489214141367 -2.546848676325162
upperneck 14.121776168696213 -3.1081233169707967 3.178500306844639
head 7.575116403337122 -1.2928598207061202 1.0436194416625475
lclavicle -1.3828209186304837e-15 2.034602407540843e-15
lhumerus -39.42774075186519 -17.92609861720515 99.59746563253867
lradius 115.23630177849626
lwrist 34.01639039620452
lhand -24.440347376170553 1.5788646791773258
lfingers 7.12502
lthumb 2.0520606080690666 31.5570637789305
rclavicle -1.3828209186304837e-15 2.034602407540843e-15
rhumerus -64.38815906825155 1.0000075446692556 -92.0278823312898
rradius 102.09059016198432
rwrist -6.8367036223784625
rhand -15.259279275454869 40.51470166900578
rfingers 7.12502
rthumb 10.914983167200697 10.817136612013222
61
root -0.6702594358505869 18.485475070823178 36.382133361340685 2.1879787637047143 2.8925085652748463 -4.487587824130934
lfemur -14.67978261985948 2.7923475615996405 -16.12112612424806
ltibia 100.08136179409772
lfoot 20.992871309005523 -15.330452728637937
ltoes -8.660823256129989
rfemur -21.521287982986415 3.042338649997759 33.39416525258436
rtibia 49.40426763907129
rfoot 2.416094595487429 -4.411141468533277
rtoes 16.757075600371998
lowerback 14.774476797110175 -0.19822170784887572 2.5255639388242583
upperback -0.7330768195087498 0.2597791429997409 3.582629251379475
thorax -9.446456805640459 0.1480422485962265 1.9343095032592217
lowerneck -18.636426800957697 -2.7227273450094747 -2.491032284294071
upperneck 14.183753073786983 -3.715124015984606 3.402156099209379
head 7.58205102544797 -1.5358151870208112 1.0582822303981503
lclavicle -1.1525088706026429e-15 2.201655311169796e-15
lhumerus -42.301104408428 -17.461021667813068 99.92825478442198
lradius 113.51385411162191
lwrist 33.22983102401946
lhand -24.536380898883202 1.4103942736522221
lfingers 7.12502
lthumb 1.9593021736096756 31.391688120008162
rclavicle -1.1525088706026429e-15 2.201655311169796e-15
rhumerus -60.32362861948957 3.341843266801585 -94.26630804801437
rradius 103.90382321255593
rwrist -7.860457898607626
rhand -15.151450944216869 40.284142109282854
rfingers 7.12502
rthumb 11.019089556560607 10.574834367339879
62
root -0.6830028551856879 18.511515435638255 35.755927697174485 2.18460802923861 1.3876288513580126 -4.749441091812127
lfemur -22.335269070220683 4.878930847919011 -16.20730350125369
ltibia 99.70673144488204
lfoot 10.374215070310335 -12.105358948966803
ltoes -11.193392768129007
rfemur -17.531055544211377 3.0734943366561187 34.005927042547995
rtibia 47.45866321226687
rfoot -1.1737719773628905 -4.603684965390914
rtoes 14.40037185566343
lowerback 14.820813091138213 0.33634450199343 3.054887832641678
upperback -0.6662243275953009 1.0749622066367053 3.1929189505245468
thorax -9.423368484505234 0.48771512224637853 0.9107160954704167
lowerneck -18.629571614747675 -2.948230751903064 -2.4369559377380865
upperneck 14.026624434828074 -4.099291113241448 3.4416264596153034
head 7.557674912041807 -1.6872310768179335 1.029481555120285
lclavicle -1.743353124405841e-15 1.7730965712728718e-15
lhumerus -46.15471575688568 -16.685874601677572 99.75544940029792
lradius 111.74388204483522
lwrist 33.19784505318871
lhand -24.946380675678846 0.9585148536364987
lfingers 7.12502
lthumb 1.5633332590371343 30.940557217181496
rclavicle -1.743353124405841e-15 1.7730965712728718e-15
rhumerus -56.44203581799126 5.771832926126186 -96.46362848689104
rradius 105.98584023916368
rwrist -9.09162471207927
rhand -15.358727450838606 39.61690246447365
rfingers 7.12502
rthumb 10.819090421754048 9.933573986343308
63
root -0.6902205846843967 18.364436165421115 35.084415779489326 2.4738249152474836 -0.2517685642626911 -5.085479012370597
lfemur -28.50195232155501 6.019639080789183 -16.264178885372672
ltibia 93.78704126891333
lfoot 3.5105289395414556 -9.26743195760019
ltoes -12.581759240394742
rfemur -14.250858888042298 3.1039435513093925 34.62642092041604
rtibia 45.95336482942395
rfoot -4.7824807739606285 -4.87783439593364
rtoes 13.00293028728338
lowerback 14.941334483511282 0.8449204323923376 3.7317458441299873
upperback -0.7065908410099853 1.8790242659912153 2.859603575680228
thorax -9.444373891262998 0.8189618498686347 -0.1840595485553259
lowerneck -18.93766404351836 -3.04448300557705 -2.3834265962737877
upperneck 13.634015771067753 -4.261272857636752 3.357659082083963
head 7.497533540723029 -1.7480430665257567 0.9766859152917275
lclavicle -2.3650649673395253e-15 1.3221485495365153e-15
lhumerus -50.2683297151898 -15.620753654618348 99.22194021698517
lradius 110.10160870815407
lwrist 33.68850381940557
lhand -25.475127499748126 0.32025977314376886
lfingers 7.12502
lthumb 1.0526905574473193 30.3014193331761
rclavicle -2.3650649673395253e-15 1.3221485495365153e-15
rhumerus -52.67344233859325 8.410086942815965 -98.31572930854247
rradius 108.38886912021175
rwrist -10.488227535333182
rhand -15.763034003971931 39.141033506561044
rfingers 7.12502
rthumb 10.42894244942188 9.500386208956904
64
root -0.6834750068278321 18.100675971605284 35.56399297960863 3.1298980502279923 -1.6521599723030165 -5.555721993395887
lfemur -32.76451042894964 5.698007516997886 -15.466950607735841
ltibia 83.08728694169291
lfoot 1.0219447285388856 -6.510163314618433
ltoes -12.181592960951509
rfemur -10.448692266081034 3.2869471958299585 35.52506780656299
rtibia 44.41751450404714
rfoot -8.143291980468453 -5.4189287015697705
rtoes 12.576405971551798
lowerback 15.04540447772537 1.3302114937859553 4.671623251520559
upperback -0.7972039590081292 2.6888941625713443 2.7110924458901815
thorax -9.45244097735017 1.148296737044142 -1.1849795867715232
lowerneck -19.49932140749374 -3.0805937599054007 -2.3108221697245206
upperneck 13.086872129806425 -4.3141001001301 3.258968079976564
head 7.415778343552591 -1.7605897564949942 0.9229691079302176
lclavicle -2.430234594974056e-15 1.2748788744977588e-15
lhumerus -53.71210344362131 -14.121378664450045 98.54716268392136
lradius 108.48446624337919
lwrist 34.07499830653292
lhand -25.981972490998043 -0.2637310079494928
lfingers 7.12502
lthumb 0.5632066887433576 29.716333543126563
rclavicle -2.430234594974056e-15 1.2748788744977588e-15
rhumerus -48.62457129384855 11.20742759583549 -99.61631835090806
rradius 111.0073816859646
rwrist -11.832481511112732
rhand -16.272955122944175 39.26843836117439
rfingers 7.12502
rthumb 9.936875174038402 9.663127959690133
